<?xml version="1.0" encoding="utf-8"?>
<!-- Generator: Adobe Illustrator 22.1.0, SVG Export Plug-In . SVG Version: 6.00 Build 0)  -->
<svg version="1.1" id="Layer_1" xmlns="http://www.w3.org/2000/svg" xmlns:xlink="http://www.w3.org/1999/xlink" x="0px" y="0px"
	 viewBox="0 0 442.2 154.8" style="enable-background:new 0 0 442.2 154.8;" xml:space="preserve">
<style type="text/css">
	.st0{fill:#FFFFFF;}
</style>
<title>Asset 1</title>
<g id="Layer_1-2">
	<path class="st0" d="M422,122.7c0,5.6,4.4,10.1,10,10.2s10.1-4.4,10.2-10c0-5.6-4.4-10.1-10-10.2c-0.1,0-0.1,0-0.2,0
		C426.5,112.7,422,117.2,422,122.7 M377.6,104.7c0-9.7,6-15.2,13.5-15.2s13.3,5.4,13.3,15.1s-5.9,15.6-13.4,15.6
		C383.3,120.2,377.5,114.4,377.6,104.7 M418.5,52.2h-14.4v31c-1.5-2.9-6-6.7-15.3-6.7c-15.3,0-26,12.5-26,28.3
		c0,16.4,11,28.5,26.5,28.5c7.3,0,12.8-3.3,15.2-7.6c0,2.1,0.2,4.2,0.5,6.3h14c-0.2-2.2-0.4-6.2-0.4-9.8L418.5,52.2z M347.2,112.8
		c-1.8,4.8-5.5,8.3-12.3,8.3c-7.3,0-13.3-5.2-13.7-12.3H360c0-0.2,0.2-2.4,0.2-4.5c0-17.4-10-28.1-26.8-28.1
		c-13.9,0-26.7,11.3-26.7,28.6c0,18.3,13.1,29,28,29c13.3,0,21.9-7.8,24.7-17.2L347.2,112.8z M321.6,98.7
		c0.5-6.2,5.9-10.9,12.1-10.7c8.4,0,11.9,5.3,12.1,10.7L321.6,98.7z M295.8,61.5h-13.2v7.6c0,4.8-2.6,8.6-8.4,8.6h-2.8v13h9.8V116
		c0,10.5,6.6,16.8,17.2,16.8c2.8,0.1,5.6-0.3,8.3-1.3v-12.1c-1.5,0.3-3,0.5-4.5,0.4c-4.2,0-6.4-1.6-6.4-6.3V90.7h10.9v-13h-10.9
		V61.5z M268.6,77.5c-1.1-0.1-2.3-0.2-3.4-0.2c-4.6,0-12.1,1.3-15.4,8.5v-8h-14.2V132h14.7v-24.8c0-11.7,6.5-15.3,14-15.3
		c1.5,0,3,0.1,4.4,0.4L268.6,77.5z M204.3,76.1c-16.2,0-28.4,12-28.4,28.8s12.2,28.8,28.4,28.8s28.4-12.1,28.4-28.8
		S220.5,76.1,204.3,76.1 M204.3,120.3c-7.2,0-13.8-5.3-13.8-15.4s6.6-15.4,13.8-15.4s13.8,5.2,13.8,15.4S211.5,120.3,204.3,120.3
		 M171.9,72.4c-1.8-8.8-9-20.3-28-20.3c-14.8,0-27.2,10.6-27.2,24.5c0,11.8,8,19.8,20.5,22.4l10.9,2.2c6.1,1.2,9.5,4.7,9.5,9.3
		c0,5.5-4.5,9.6-12.7,9.6c-11,0-16.4-7-17.1-14.7l-14.1,3.8c1.2,11.1,10.4,24.5,31.1,24.5c18.2,0,28.2-12.1,28.2-24.1
		c0-11-7.6-20.3-21.8-23l-10.9-2.1c-5.7-1.1-8.5-4.5-8.5-8.8c0-5.2,4.9-9.9,12.2-9.9c9.9,0,13.4,6.7,14.2,11L171.9,72.4z"/>
	<path class="st0" d="M89.7,93.6L75.3,31.7l0.2-0.3l0,0c2.2-2.9,6.3-3.4,9.2-1.2c1.5,1.2,2.5,3,2.5,4.9L89.7,93.6z M64.3,10
		c-1.1-4.6-5.8-7.4-10.4-6.3c-2.5,0.6-4.5,2.3-5.6,4.5l0,0c0,0,0,0.1,0,0.1l0,0c-1.1,2.2-1.8,4.6-2,7l32.4,52.1L64.3,10z M72.3,69
		L30.5,4.5C27.8,0.1,22-1.3,17.6,1.4c-2.3,1.5-3.8,3.9-4.1,6.6l0,0c0,0,0,0.1,0,0.1l0,0c-1.8,12.5,13.2,35.2,13.2,35.2l11.3,17.4
		c2-0.2,4-0.4,6-0.4c5.9,0,11.8,1.1,17.4,3.2l-1.2,5.8c-22.8-8.9-48.5,2.3-57.4,25.1c-1.6,4.2-2.6,8.5-2.9,13h20.6
		C22.2,94.4,34,85.1,47,86.7s22.3,13.4,20.8,26.4s-13.4,22.3-26.4,20.8c-10.7-1.3-19.1-9.5-20.7-20.2H0
		c1.7,24.4,22.9,42.8,47.3,41.1c23.2-1.6,41.2-20.9,41.2-44.2c0-6.7-1.5-13.2-4.4-19.3C80.6,83.6,76.7,76.2,72.3,69L72.3,69z"/>
</g>
</svg>
